HIERARCHY
ROOT Bone
{
	OFFSET 0.000000 0.000000 0.000000
	CHANNELS 6 Xposition Yposition Zposition Zrotation Yrotation Xrotation
	JOINT Bone.001
	{
		OFFSET 0.000000 0.000000 1.000000
		CHANNELS 3 Zrotation Yrotation Xrotation
		JOINT Bone.002
		{
			OFFSET 0.000000 0.000000 0.734388
			CHANNELS 3 Zrotation Yrotation Xrotation
			JOINT Bone.005
			{
				OFFSET 0.000000 0.000000 0.827556
				CHANNELS 3 Zrotation Yrotation Xrotation
				JOINT Bone.006
				{
					OFFSET 0.000000 0.000000 0.869060
					CHANNELS 3 Zrotation Yrotation Xrotation
					JOINT Bone.011
					{
						OFFSET 0.563227 -0.018866 0.267704
						CHANNELS 3 Zrotation Yrotation Xrotation
						JOINT Bone.012
						{
							OFFSET 0.609516 0.008721 -0.056230
							CHANNELS 3 Zrotation Yrotation Xrotation
							End Site
							{
								OFFSET 0.387940 0.150738 0.059537
							}
						}
					}
				}
				JOINT Bone.008
				{
					OFFSET 0.000000 0.000000 0.869060
					CHANNELS 3 Zrotation Yrotation Xrotation
					JOINT Bone.015
					{
						OFFSET -0.258072 0.616539 0.153479
						CHANNELS 3 Zrotation Yrotation Xrotation
						JOINT Bone.016
						{
							OFFSET -0.130962 0.588591 0.015681
							CHANNELS 3 Zrotation Yrotation Xrotation
							End Site
							{
								OFFSET -0.135573 0.525406 0.005227
							}
						}
					}
				}
				JOINT Bone.010
				{
					OFFSET 0.000000 0.000000 0.869060
					CHANNELS 3 Zrotation Yrotation Xrotation
					JOINT Bone.013
					{
						OFFSET -0.583533 -0.099563 0.160616
						CHANNELS 3 Zrotation Yrotation Xrotation
						JOINT Bone.014
						{
							OFFSET -0.629268 -0.112959 -0.010203
							CHANNELS 3 Zrotation Yrotation Xrotation
							End Site
							{
								OFFSET -0.393003 -0.112641 -0.034009
							}
						}
					}
				}
			}
		}
	}
}
MOTION
Frames: 24
Frame Time: 0.041667
0.006519 0.000000 0.000000 0.000000 10.866375 0.000000 0.000000 -0.338907 0.000000 -0.000000 -0.520433 0.000000 3.230828 -48.614145 -5.992587 0.000000 0.000001 0.000000 -0.160602 -0.123332 -0.008846 -0.000001 0.000001 0.000001 -0.000002 -0.000002 0.000002 0.000000 0.000001 0.000003 0.000001 -0.000000 0.000000 0.000000 0.000001 0.000001 0.001157 0.222569 0.008913 0.000002 0.000001 -0.000001 
0.025481 0.000000 0.000000 0.000000 10.866466 0.000000 0.000000 -1.303407 0.000000 -0.000000 -1.996576 0.000000 3.230828 -48.614148 -5.992588 -0.000000 -0.000001 -0.000000 -0.628656 -0.482971 -0.032659 0.000001 0.000000 -0.000001 -0.000002 -0.000006 0.000001 -0.000001 0.000000 0.000000 0.000001 -0.000002 0.000000 0.000000 -0.000002 -0.000000 0.005290 0.870805 0.034898 0.000002 0.000003 -0.000001 
0.056000 0.000000 0.000000 0.000000 10.866612 0.000000 0.000000 -2.816574 0.000000 -0.000000 -4.299549 0.000001 3.230828 -48.614141 -5.992587 -0.000000 0.000004 0.000000 -1.384613 -1.064382 -0.064924 0.000001 -0.000003 0.000001 -0.000002 0.000001 0.000000 0.000002 -0.000002 -0.000001 0.000002 0.000002 -0.000000 -0.000001 0.000002 0.000001 0.013657 1.917277 0.076959 0.000004 -0.000002 -0.000001 
0.097185 0.000000 0.000000 0.000000 10.866820 0.000000 0.000000 -4.801993 0.000000 -0.000000 -7.297477 0.000002 3.230828 -48.614148 -5.992587 0.000000 -0.000002 -0.000000 -2.410151 -1.853865 -0.096441 0.000001 0.000001 -0.000001 -0.000002 -0.000006 0.000000 -0.000001 -0.000000 -0.000002 0.000001 -0.000004 0.000001 0.000000 -0.000003 0.000000 0.027824 3.336204 0.134316 0.000002 -0.000002 0.000001 
0.148148 0.000000 0.000000 0.000000 10.867079 0.000000 0.000000 -7.182265 0.000000 -0.000000 -10.854111 0.000003 3.230828 -48.614148 -5.992587 0.000000 -0.000001 -0.000000 -3.687946 -2.837968 -0.115931 0.000001 -0.000001 -0.000001 -0.000002 0.000002 0.000001 0.000001 -0.000002 -0.000001 -0.000000 -0.000000 0.000000 -0.000000 0.000002 0.000000 0.049623 5.102624 0.206425 0.000000 -0.000005 0.000001 
0.208000 0.000000 0.000000 0.000000 10.867391 0.000000 0.000000 -9.877977 0.000000 -0.000000 -14.828776 0.000004 3.230828 -48.614148 -5.992588 -0.000000 -0.000001 -0.000000 -5.201475 -4.002842 -0.110596 0.000001 -0.000003 0.000001 -0.000000 0.000001 0.000003 0.000001 -0.000002 0.000001 0.000001 -0.000002 0.000001 -0.000001 -0.000000 0.000000 0.081128 7.191609 0.293018 0.000000 -0.000002 -0.000000 
0.275852 0.000000 0.000000 0.000000 10.867756 0.000000 0.000000 -12.807219 0.000000 -0.000001 -19.077920 0.000005 3.230828 -48.614148 -5.992587 0.000000 0.000003 0.000000 -6.934858 -5.333711 -0.066641 -0.000001 -0.000002 -0.000000 0.000000 -0.000002 0.000001 0.000002 -0.000002 0.000001 0.000001 -0.000000 -0.000000 -0.000000 0.000001 -0.000000 0.124642 9.577441 0.394153 0.000002 0.000000 0.000001 
0.350815 0.000000 0.000000 0.000000 10.868169 0.000000 0.000000 -15.885700 0.000000 -0.000001 -23.458128 0.000006 3.230828 -48.614148 -5.992588 0.000000 -0.000001 0.000000 -8.872662 -6.814377 0.030196 -0.000001 0.000000 0.000001 -0.000000 0.000001 0.000000 0.000001 0.000002 -0.000001 0.000001 -0.000000 -0.000001 -0.000001 -0.000000 0.000001 0.182714 12.233046 0.510252 0.000000 0.000001 0.000000 
0.432000 0.000000 0.000000 0.000000 10.868631 0.000000 0.000000 -19.027404 0.000000 -0.000002 -27.829975 0.000007 3.230829 -48.614148 -5.992586 -0.000000 0.000001 -0.000000 -10.999734 -8.426824 0.194101 -0.000001 -0.000001 -0.000000 -0.000000 -0.000000 -0.000002 0.000000 0.000000 0.000001 0.000001 -0.000000 -0.000000 -0.000000 0.000001 0.000000 0.258155 15.129414 0.642157 0.000000 -0.000002 -0.000000 
0.518519 0.000000 0.000000 0.000000 10.869137 0.000000 0.000000 -22.145649 0.000000 -0.000002 -32.061898 0.000009 3.230828 -48.614148 -5.992587 0.000000 0.000003 -0.000000 -13.300948 -10.150998 0.438621 0.000002 0.000000 -0.000000 -0.000002 -0.000000 0.000001 -0.000000 0.000000 0.000001 -0.000000 -0.000000 0.000000 -0.000001 -0.000000 -0.000000 0.354092 18.235234 0.791182 0.000002 0.000001 0.000000 
0.609481 0.000000 0.000000 0.000000 10.869685 0.000000 0.000000 -25.154253 0.000000 -0.000003 -36.033090 0.000010 3.230828 -48.614145 -5.992587 0.000000 -0.000002 -0.000000 -15.760938 -11.964736 0.776059 0.000001 -0.000003 0.000000 -0.000004 -0.000002 0.000001 -0.000000 0.000000 0.000000 0.000001 -0.000000 -0.000001 -0.000000 0.000001 0.000000 0.474007 21.516747 0.959169 0.000002 0.000000 -0.000000 
0.704000 0.000000 0.000000 0.000000 10.870277 0.000000 0.000000 -27.968645 0.000000 -0.000004 -39.635024 0.000011 3.230828 -48.614141 -5.992587 -0.000000 -0.000002 -0.000000 -18.363754 -13.843910 1.216855 0.000001 0.000001 -0.000000 -0.000002 0.000000 -0.000001 0.000001 0.000001 -0.000002 0.000000 0.000000 0.000000 -0.000002 -0.000000 0.000000 0.621831 24.937746 1.148558 0.000000 -0.000000 0.000000 
0.801185 0.000000 0.000000 0.000000 10.870911 0.000000 0.000000 -30.506661 0.000000 -0.000005 -42.770918 0.000013 3.230828 -48.614148 -5.992587 0.000000 0.000001 0.000000 -21.092459 -15.762794 1.768941 0.000001 0.000000 -0.000001 0.000000 -0.000000 0.000002 0.000002 -0.000002 -0.000002 0.000003 -0.000004 0.000001 -0.000001 0.000001 0.000000 0.801993 28.459851 1.362447 -0.000002 0.000000 -0.000000 
0.900148 0.000000 0.000000 0.000000 10.871584 0.000000 0.000000 -32.688821 0.000000 -0.000006 -45.353614 0.000014 3.230829 -48.614148 -5.992586 -0.000000 -0.000001 -0.000000 -23.928663 -17.694589 2.437100 0.000003 0.000006 -0.000002 -0.000002 -0.000003 0.000002 -0.000002 0.000000 0.000000 0.000001 -0.000003 0.000001 -0.000001 0.000002 0.000001 1.019537 32.042941 1.604663 0.000000 -0.000000 0.000000 
1.000000 0.000000 0.000000 0.000000 10.872288 0.000000 0.000000 -34.437954 0.000000 -0.000006 -47.301703 0.000015 3.230828 -48.614145 -5.992587 0.000000 0.000004 0.000000 -26.852052 -19.612120 3.222363 -0.000001 -0.000002 -0.000001 0.000000 -0.000000 0.000002 -0.000000 0.000002 0.000001 0.000001 0.000004 0.000001 -0.000001 0.000001 0.000000 1.280169 35.645729 1.879824 0.000000 0.000000 -0.000000 
1.099852 0.000000 0.000000 0.000000 10.873033 0.000000 0.000000 -35.678251 0.000000 -0.000007 -48.534570 0.000015 3.230828 -48.614145 -5.992587 0.000000 0.000001 -0.000000 -29.839911 -21.488760 4.121469 -0.000001 -0.000000 0.000002 -0.000002 -0.000002 0.000001 0.000001 0.000002 -0.000001 0.000002 0.000002 -0.000001 -0.000000 0.000001 -0.000000 1.590328 39.226483 2.193358 -0.000002 0.000000 0.000000 
1.198815 0.000000 0.000000 0.000000 10.873809 0.000000 0.000000 -36.333833 0.000000 0.000000 -48.966360 0.000000 3.230828 -48.614148 -5.992587 0.000000 -0.000001 0.000000 -32.866706 -23.299247 5.126482 0.000001 -0.000002 -0.000001 0.000000 -0.000003 0.000000 -0.000000 0.000002 0.000001 0.000000 -0.000004 -0.000000 -0.000000 -0.000000 0.000000 1.957197 42.743826 2.551498 0.000000 0.000000 -0.000000 
1.296000 0.000000 0.000000 0.000000 10.874617 0.000000 0.002995 -36.664817 -0.000783 0.000000 -48.532575 -0.000000 3.230828 -48.614145 -5.992587 0.000000 0.000004 0.000000 -35.903832 -25.020663 6.224595 -0.000003 0.000004 -0.000003 -0.000001 0.000003 -0.000000 0.000002 0.000000 0.000000 0.000001 0.000000 0.000000 0.000000 0.000002 0.000000 2.388582 46.157356 2.961150 0.000002 0.000001 -0.000001 
1.390518 0.000000 0.000000 0.000000 10.875457 0.000000 0.011857 -36.982852 -0.003137 0.000000 -47.267600 -0.000001 3.230828 -48.614145 -5.992588 0.000000 -0.000002 -0.000000 -38.919500 -26.633196 7.398116 0.000002 -0.000001 0.000001 0.000000 -0.000005 0.000003 -0.000001 0.000006 0.000000 0.000000 -0.000005 0.000001 -0.000001 0.000000 -0.000001 2.892667 49.428341 3.429612 0.000002 -0.000000 0.000000 
1.481482 0.000000 0.000000 0.000000 10.876321 0.000000 0.026399 -37.288222 -0.007067 0.000001 -45.215644 -0.000001 3.230828 -48.614148 -5.992588 -0.000000 0.000001 0.000000 -41.878929 -28.120760 8.624824 0.000001 0.000000 -0.000002 0.000000 -0.000004 0.000000 0.000001 -0.000002 0.000001 0.000000 -0.000002 0.000001 -0.000001 -0.000000 0.000000 3.477458 52.520094 3.963999 -0.000002 -0.000001 0.000000 
1.568000 0.000000 0.000000 0.000000 10.877211 0.000000 0.046426 -37.581159 -0.012567 0.000001 -42.410786 -0.000002 3.230828 -48.614148 -5.992587 0.000000 0.000001 0.000000 -44.744617 -29.471334 9.878501 -0.000001 -0.000002 0.000003 -0.000002 -0.000000 0.000001 0.000001 0.000000 -0.000000 -0.000001 -0.000002 0.000000 -0.000000 -0.000000 0.000001 4.149858 55.398291 4.570272 0.000002 0.000004 -0.000000 
1.649185 0.000000 0.000000 0.000000 10.878128 0.000000 0.071738 -37.861900 -0.019625 0.000001 -38.881924 -0.000003 3.230828 -48.614148 -5.992587 -0.000000 -0.000002 -0.000001 -47.477072 -30.677088 11.129834 0.000003 -0.000001 -0.000000 -0.000002 -0.000001 0.000003 0.000001 -0.000000 -0.000001 -0.000003 0.000003 -0.000000 0.000000 0.000002 -0.000000 4.914143 58.031084 5.251724 0.000000 -0.000001 -0.000000 
1.724148 0.000000 0.000000 0.000000 10.879069 0.000000 0.102132 -38.130723 -0.028221 0.000001 -34.657674 -0.000004 3.230828 -48.614148 -5.992587 -0.000000 0.000003 0.000000 -50.035483 -31.734124 12.347342 0.000001 0.000000 0.000005 0.000000 0.000001 0.000001 -0.000001 -0.000002 -0.000000 -0.000000 0.000005 -0.000002 0.000000 -0.000000 0.000000 5.769774 60.388919 6.006737 0.000002 0.000002 -0.000000 
1.792000 0.000000 0.000000 0.000000 10.880027 0.000000 0.137397 -38.387873 -0.038327 0.000001 -29.771562 -0.000005 3.230828 -48.614141 -5.992588 -0.000000 -0.000004 -0.000000 -52.378549 -32.641887 13.498521 0.000001 -0.000002 0.000001 0.000002 -0.000002 0.000001 0.000001 0.000003 -0.000002 -0.000001 -0.000000 0.000000 0.000000 0.000001 -0.000000 6.708562 62.444397 6.825931 0.000000 0.000000 0.000000 
